<svg version="1.1" id="Layer_1" xmlns="http://www.w3.org/2000/svg" xmlns:xlink="http://www.w3.org/1999/xlink" x="0px" y="0px" viewBox="0 0 338.5 48" style="enable-background:new 0 0 338.5 48;" xml:space="preserve">
 <style type="text/css">
  .st0{fill:#FFFFFF;}
	.st1{clip-path:url(#SVGID_2_);}
	.st2{clip-path:url(#SVGID_4_);}
 </style>
 <g>
  <path class="st0" d="M315.9,48c15.3,0.1,22.7-4.8,22.7-14.8c0-12.9-12.3-12.7-21-14.2l-4.5-0.7c-2.9-0.5-3.3-2-3.3-2.7
		c0-1.6,1.6-2.9,6-2.9c5.1,0,7.3,1.6,7.8,4.2h13.9C337.6,3.4,328.7,0,316,0c-14.3,0-21.2,5.6-21.2,14.6c0,12.1,10.4,12.7,18.5,14
		l5.7,0.9c3.9,0.5,4.1,2,4.1,2.9c0,1.6-2.2,3-7.2,2.9c-5.9-0.1-8-1.7-8.1-4.3h-13.9C293.3,43.1,300.4,47.9,315.9,48z">
  </path>
  <path class="st0" d="M258.8,1.4h-22.3v45h22.3c17.8,0,23.9-9.5,23.9-22.5C282.8,10.9,276.6,1.4,258.8,1.4z M258.8,32.9h-6.7
		l0.1-17.9h6.7c4.6,0,8.3,2.2,8.3,8.9C267.1,30.6,263.4,32.9,258.8,32.9z">
  </path>
  <path class="st0" d="M224.6,46.4l-7.5-14.6c3.4-2.7,5.9-7,5.9-12.9c0-12.3-6.9-17.6-19-17.6h-25.4v45h15.5v-11h9.8l5.4,11H224.6z
		 M194.1,14.9h8.7c3.1,0,4.6,1.6,4.6,4.2c0,2.6-1.5,4.2-4.6,4.2h-8.7V14.9z">
  </path>
  <g>
   <defs>
    <rect id="SVGID_1_" x="109.2" width="60.3" height="48">
    </rect>
   </defs>
   <clipPath id="SVGID_2_">
    <use href="#SVGID_1_" style="overflow:visible;">
    </use>
   </clipPath>
   <g class="st1">
    <path class="st0" d="M142,55.4c15.1,0,24.7-9.5,24.7-24c0-14.5-9.6-24-24.7-24c-15.1,0-24.7,9.5-24.7,24
				C117.4,46,127,55.4,142,55.4z M142,41.5c-4.9,0-9.2-3.5-9.2-10s4.3-10,9.2-10c5,0,9.2,3.5,9.2,10S147,41.5,142,41.5z">
    </path>
   </g>
  </g>
  <g>
   <defs>
    <rect id="SVGID_3_" x="49.2" width="60.3" height="48">
    </rect>
   </defs>
   <clipPath id="SVGID_4_">
    <use xlink:href="#SVGID_3_" style="overflow:visible;">
    </use>
   </clipPath>
   <g class="st2">
    <path class="st0" d="M81,40.6c15.1,0,24.7-9.5,24.7-24c0-14.5-9.6-24-24.7-24c-15.1,0-24.7,9.5-24.7,24
				C56.3,31.1,65.9,40.6,81,40.6z M81,26.6c-4.9,0-9.2-3.5-9.2-10c0-6.5,4.3-10,9.2-10c5,0,9.2,3.5,9.2,10
				C90.3,23.1,86,26.6,81,26.6z">
    </path>
   </g>
  </g>
  <path class="st0" d="M39.1,23.4v-1c2.8-1.7,5.4-3.7,5.4-8.9c0-5.8-3.3-12.1-16.6-12.1H0v45h26.9c13.8,0,18.6-5.5,18.6-12.7
		C45.6,28.7,43.1,25.7,39.1,23.4z M26.2,13.8c2.9,0,3.5,1.7,3.5,2.8c0,1.1-0.6,2.8-3.5,2.8H15.5v-5.6H26.2z M26.4,34.1H15.5V28h10.8
		c2.9,0,3.5,1.9,3.5,3C29.9,32,29.2,34.1,26.4,34.1z">
  </path>
 </g>
</svg>