<?xml version="1.0" encoding="UTF-8"?>
<svg version="1.1" xmlns="http://www.w3.org/2000/svg" width="444" height="113">
<path d="M0 0 C146.52 0 293.04 0 444 0 C444 37.29 444 74.58 444 113 C297.48 113 150.96 113 0 113 C0 75.71 0 38.42 0 0 Z " fill="#FDFDFD" transform="translate(0,0)"/>
<path d="M0 0 C6.31187777 5.37261024 11.66207441 11.68694458 13.1875 20.046875 C13.83789027 29.10969031 13.68187321 36.94517593 9.1875 45.046875 C8.6615625 46.01367188 8.6615625 46.01367188 8.125 47 C4.90848433 52.13749031 0.40877973 55.12154001 -4.8125 58.046875 C-5.41707031 58.38976562 -6.02164063 58.73265625 -6.64453125 59.0859375 C-13.78512847 62.41510483 -23.27451758 62.4046002 -30.7109375 60.1796875 C-32.83315357 59.2387697 -34.81865946 58.23175876 -36.8125 57.046875 C-37.4725 56.716875 -38.1325 56.386875 -38.8125 56.046875 C-38.8125 63.636875 -38.8125 71.226875 -38.8125 79.046875 C-43.7625 79.046875 -48.7125 79.046875 -53.8125 79.046875 C-53.88055475 71.64007515 -53.93547572 64.2334491 -53.96793652 56.82640171 C-53.98352416 53.38618316 -54.00463408 49.94619152 -54.03881836 46.50610352 C-54.07796007 42.54185803 -54.09226629 38.57770113 -54.10546875 34.61328125 C-54.12095261 33.39105362 -54.13643646 32.16882599 -54.15238953 30.90956116 C-54.15461137 19.53010053 -51.89472725 11.29974428 -43.8125 3.046875 C-30.83242892 -7.19709341 -14.23429103 -9.88492433 0 0 Z " fill="#1C3257" transform="translate(59.8125,28.953125)"/>
<path d="M0 0 C4.95 0 9.9 0 15 0 C15 22.11 15 44.22 15 67 C10.05 67 5.1 67 0 67 C0 65.35 0 63.7 0 62 C-1.12535156 62.54140625 -1.12535156 62.54140625 -2.2734375 63.09375 C-11.86847276 67.44414382 -19.97556004 68.59024208 -30 65 C-39.57117553 60.97190751 -45.87949298 55.21908341 -50.046875 45.578125 C-53.0188397 36.77438053 -53.31173876 28.05016917 -49.4609375 19.48828125 C-43.91366687 10.04012246 -36.50693439 3.94888017 -26 1 C-23.22411041 0.67850362 -20.480336 0.62002999 -17.6875 0.625 C-16.93927979 0.62371094 -16.19105957 0.62242188 -15.42016602 0.62109375 C-9.45024514 0.73518932 -5.21047596 1.96845035 0 5 C0 3.35 0 1.7 0 0 Z " fill="#1B3157" transform="translate(130,23)"/>
<path d="M0 0 C4.95 0 9.9 0 15 0 C15 22.11 15 44.22 15 67 C10.05 67 5.1 67 0 67 C0 65.35 0 63.7 0 62 C-0.53625 62.28875 -1.0725 62.5775 -1.625 62.875 C-10.77247348 67.20801375 -21.81059414 67.86416055 -31.4375 64.5 C-40.05543786 60.36513082 -46.30129707 53.78441946 -50 45 C-52.73536746 36.77601939 -52.15663063 26.28397352 -48.5625 18.5 C-44.00292794 10.64087814 -37.58898859 4.64966216 -28.93359375 1.625 C-18.94689992 -0.50265781 -9.07283106 0.11462943 0 5 C0 3.35 0 1.7 0 0 Z " fill="#1B3157" transform="translate(353,23)"/>
<path d="M0 0 C1.39456452 0.00667256 2.78911118 0.01863093 4.18359375 0.03515625 C4.89451172 0.03966797 5.60542969 0.04417969 6.33789062 0.04882812 C8.09899388 0.06064761 9.86005411 0.07858362 11.62109375 0.09765625 C11.62109375 1.41765625 11.62109375 2.73765625 11.62109375 4.09765625 C12.29914063 3.80890625 12.9771875 3.52015625 13.67578125 3.22265625 C22.9316781 -0.46944665 30.63545634 -1.21138684 40.16796875 1.99609375 C47.54967776 5.31081022 53.32210401 10.67824157 56.62109375 18.09765625 C58.61493457 23.83963927 58.88716857 28.9186403 58.81640625 34.96875 C58.81357635 35.89107925 58.81074646 36.81340851 58.80783081 37.76368713 C58.79670349 40.68764638 58.77161287 43.61129076 58.74609375 46.53515625 C58.73605432 48.52668826 58.72693015 50.51822511 58.71875 52.50976562 C58.69678858 57.37251575 58.66231048 62.23503275 58.62109375 67.09765625 C54.00109375 67.09765625 49.38109375 67.09765625 44.62109375 67.09765625 C44.61174805 65.89230225 44.60240234 64.68694824 44.59277344 63.44506836 C44.55274859 58.95137261 44.48695526 54.4583525 44.41357422 49.96508789 C44.3854369 48.02442131 44.36418649 46.08364168 44.35009766 44.14282227 C44.32856757 41.34462913 44.28186657 38.54778496 44.23046875 35.75 C44.22924011 34.88930405 44.22801147 34.02860809 44.22674561 33.14183044 C44.0870192 27.32901946 42.94887797 23.89229272 39.62109375 19.09765625 C36.16495603 16.20059963 32.03668664 14.86721136 27.55859375 14.59765625 C23.16567218 15.15548756 19.86558522 16.01538935 16.62109375 19.09765625 C12.7177678 24.75877138 12.02141828 28.95520166 12.01171875 35.75 C11.9951825 36.65013321 11.97864624 37.55026642 11.96160889 38.47767639 C11.91333256 41.3302405 11.89180347 44.1822723 11.87109375 47.03515625 C11.842917 48.97854211 11.8129872 50.9219034 11.78125 52.86523438 C11.70757917 57.60933114 11.65788035 62.35313593 11.62109375 67.09765625 C9.14185574 67.1245072 6.66290535 67.14442172 4.18359375 67.16015625 C3.47654297 67.16853516 2.76949219 67.17691406 2.04101562 67.18554688 C0.23415816 67.19419213 -1.57278228 67.14985636 -3.37890625 67.09765625 C-5.19306508 65.28349742 -4.50661198 62.47319924 -4.50830078 60.03320312 C-4.51145294 58.73515747 -4.5146051 57.43711182 -4.51785278 56.09973145 C-4.516063 54.67195604 -4.51401205 53.24418094 -4.51171875 51.81640625 C-4.51239183 50.36291487 -4.51336189 48.90942361 -4.51461792 47.45593262 C-4.51609471 44.40599498 -4.51394095 41.35608659 -4.50927734 38.30615234 C-4.50358005 34.38835066 -4.50685916 30.47061747 -4.51284981 26.5528183 C-4.51645594 23.55034871 -4.5153166 20.54789548 -4.51272202 17.54542542 C-4.51205289 16.10046887 -4.51288067 14.65551086 -4.51520157 13.21055603 C-4.5177289 11.19440742 -4.51319677 9.17825363 -4.50830078 7.16210938 C-4.50750519 6.01262817 -4.50670959 4.86314697 -4.50588989 3.67883301 C-4.31338824 -0.23411822 -4.03287222 0.116557 0 0 Z " fill="#1E3459" transform="translate(379.37890625,22.90234375)"/>
<path d="M0 0 C17.16 0 34.32 0 52 0 C52 14 52 14 50.12890625 17.38671875 C49.28199219 18.14597656 48.43507813 18.90523437 47.5625 19.6875 C46.6446875 20.57050781 45.726875 21.45351563 44.78125 22.36328125 C43.8634375 23.23339844 42.945625 24.10351562 42 25 C40.49010739 26.76585044 39.01005086 28.5576943 37.5625 30.375 C33.66168406 35.20922547 29.66987708 39.95606157 25.62915039 44.67333984 C23.6006264 47.05303247 21.73737388 49.39393918 20 52 C35.84 52.495 35.84 52.495 52 53 C52 57.29 52 61.58 52 66 C51 67 51 67 48.94358826 67.12025452 C48.03979935 67.11803391 47.13601044 67.11581329 46.20483398 67.11352539 C45.18385117 67.11344986 44.16286835 67.11337433 43.11094666 67.11329651 C42.0005452 67.10813522 40.89014374 67.10297394 39.74609375 67.09765625 C38.61551041 67.0962413 37.48492706 67.09482635 36.32008362 67.09336853 C32.69252935 67.08775019 29.06503576 67.07519458 25.4375 67.0625 C22.98502693 67.05748736 20.5325529 67.05292405 18.08007812 67.04882812 C12.05336455 67.0377748 6.02668661 67.02101884 0 67 C-0.09320635 64.76511896 -0.15966749 62.52911191 -0.21484375 60.29296875 C-0.25472412 59.04797607 -0.29460449 57.8029834 -0.33569336 56.52026367 C0.23196371 50.56750203 3.82712981 47.9142501 8 44 C9.44309466 42.29282702 10.85884283 40.56225528 12.25 38.8125 C16.38220022 33.7156398 20.6315976 28.73018883 24.92675781 23.77075195 C25.41241211 23.20831787 25.89806641 22.64588379 26.3984375 22.06640625 C26.82817871 21.57084229 27.25791992 21.07527832 27.70068359 20.56469727 C29.19816061 18.76136577 30.59358644 16.87521807 32 15 C21.44 14.67 10.88 14.34 0 14 C0 9.38 0 4.76 0 0 Z " fill="#1C3258" transform="translate(250,23)"/>
<path d="M0 0 C2.14576637 -0.02685938 4.29162645 -0.04633088 6.4375 -0.0625 C7.63246094 -0.07410156 8.82742187 -0.08570313 10.05859375 -0.09765625 C13 0 13 0 14 1 C14.07330331 3.86469325 14.09217831 6.69893674 14.0625 9.5625 C14.0315625 13.7390625 14.0315625 13.7390625 14 18 C19.94 18 25.88 18 32 18 C32 22.62 32 27.24 32 32 C26.06 32 20.12 32 14 32 C14.06001414 36.54307061 14.14707489 41.08287014 14.25 45.625 C14.26417969 46.91019531 14.27835938 48.19539063 14.29296875 49.51953125 C14.36738408 58.61598184 14.36738408 58.61598184 19 66 C22.96058123 69.30048436 26.89426575 70.14904429 32 71 C32 75.62 32 80.24 32 85 C22.79557556 85.66941269 15.96143063 82.36100902 8.7890625 76.703125 C3.59721114 71.76066388 0.32602596 65.11729296 -0.24050903 57.962677 C-0.23606781 56.89234222 -0.23162659 55.82200745 -0.22705078 54.71923828 C-0.22689972 53.4984256 -0.22674866 52.27761292 -0.22659302 51.01980591 C-0.21627045 49.71647308 -0.20594788 48.41314026 -0.1953125 47.0703125 C-0.19157802 45.71125497 -0.1887331 44.35219474 -0.18673706 42.99313354 C-0.17913483 39.43225551 -0.1595161 35.87154303 -0.1373291 32.31072998 C-0.11679679 28.67071776 -0.10771962 25.03067855 -0.09765625 21.390625 C-0.07626662 14.26034932 -0.04217234 7.13018552 0 0 Z " fill="#1C3358" transform="translate(191,5)"/>
<path d="M0 0 C4.62 0 9.24 0 14 0 C14.33 1.32 14.66 2.64 15 4 C15.72445312 3.71125 16.44890625 3.4225 17.1953125 3.125 C18.64550781 2.568125 18.64550781 2.568125 20.125 2 C21.07632813 1.62875 22.02765625 1.2575 23.0078125 0.875 C26 0 26 0 32 0 C32 4.62 32 9.24 32 14 C30.80375 14.2475 29.6075 14.495 28.375 14.75 C24.25687963 15.80686275 21.26925379 17.18692116 18 20 C15.02483799 25.5556189 14.53578926 30.1970917 14.48828125 36.43359375 C14.47033005 37.31153091 14.45237885 38.18946808 14.43388367 39.0940094 C14.38006321 41.87512529 14.34597636 44.65607237 14.3125 47.4375 C14.27930192 49.33270564 14.24480997 51.22788908 14.20898438 53.12304688 C14.12435325 57.74857555 14.057408 62.37405662 14 67 C9.38 67 4.76 67 0 67 C0 44.89 0 22.78 0 0 Z " fill="#1C3257" transform="translate(152,23)"/>
<path d="M0 0 C5.22465963 4.47827969 8.21946883 8.66780796 9 15.5625 C8.38851366 21.57544896 6.162704 26.20677484 1.5625 30.1875 C-4.00625196 34.09747478 -9.77536062 33.87936958 -16.375 33.25 C-21.63979053 30.71161885 -24.86400748 27.04533617 -27.625 21.9375 C-29.06464972 16.77875518 -29.23831228 12.32139724 -26.75 7.5625 C-20.43617426 -2.20942818 -10.45796042 -5.42264614 0 0 Z " fill="#FAFBFB" transform="translate(121.375,40.75)"/>
<path d="M0 0 C5.06773145 1.81688764 9.00342811 5.04461212 11.37109375 9.91796875 C12.92492321 15.06201285 13.01978376 20.29260949 11.1171875 25.34375 C8.51861595 29.95578428 5.19673215 33.49370083 0 35 C-5.59037789 35.72133908 -10.29307479 35.8069101 -15.4375 33.375 C-23.54342287 25.86219344 -23.54342287 25.86219344 -24.23828125 19.984375 C-24.42682304 14.30827484 -23.62931095 10.44811891 -20 6 C-13.74586238 -0.15841102 -8.61391425 -0.93911095 0 0 Z " fill="#FCFCFC" transform="translate(46,39)"/>
<path d="M0 0 C4.36775158 3.14884416 7.96773395 6.77820184 9.6875 11.9375 C10.25474124 17.6644548 9.93131086 22.01585594 6.6875 26.9375 C3.12790128 30.95345753 0.32427334 33.61766572 -5.08203125 34.2734375 C-11.76014894 34.3591643 -16.00613013 34.13837615 -21.3125 29.9375 C-25.48979235 24.55099144 -26.74029504 20.26828923 -26.65234375 13.57421875 C-25.99895014 8.50478556 -23.51866479 4.96602555 -19.80859375 1.5546875 C-13.93528164 -2.49294446 -6.55816356 -2.1035619 0 0 Z " fill="#FCFCFC" transform="translate(343.3125,40.0625)"/>
<path d="M0 0 C4.62 0 9.24 0 14 0 C14 22.11 14 44.22 14 67 C9.38 67 4.76 67 0 67 C0 44.89 0 22.78 0 0 Z " fill="#1C3358" transform="translate(229,23)"/>
<path d="M0 0 C3.35286458 0.03255208 6.70572917 0.06510417 10.05859375 0.09765625 C10.05859375 4.71765625 10.05859375 9.33765625 10.05859375 14.09765625 C5.43859375 14.09765625 0.81859375 14.09765625 -3.94140625 14.09765625 C-4.0390625 4.0390625 -4.0390625 4.0390625 -3.94140625 1.09765625 C-2.94140625 0.09765625 -2.94140625 0.09765625 0 0 Z " fill="#172E54" transform="translate(232.94140625,4.90234375)"/>
<path d="M0 0 C2.14576637 -0.02685938 4.29162645 -0.04633088 6.4375 -0.0625 C7.63246094 -0.07410156 8.82742187 -0.08570313 10.05859375 -0.09765625 C13 0 13 0 14 1 C14.07325168 3.86267567 14.09238205 6.700719 14.0625 9.5625 C14.05798828 10.36880859 14.05347656 11.17511719 14.04882812 12.00585938 C14.03700518 14.00393756 14.01906914 16.00197783 14 18 C13.34 18 12.68 18 12 18 C12 12.72 12 7.44 12 2 C8.37 2 4.74 2 1 2 C0.67 1.34 0.34 0.68 0 0 Z " fill="#435572" transform="translate(191,5)"/>
<path d="M0 0 C1.79244141 0.01740234 1.79244141 0.01740234 3.62109375 0.03515625 C5.41740234 0.04869141 5.41740234 0.04869141 7.25 0.0625 C8.17683594 0.07410156 9.10367188 0.08570313 10.05859375 0.09765625 C9.72859375 0.75765625 9.39859375 1.41765625 9.05859375 2.09765625 C5.42859375 2.09765625 1.79859375 2.09765625 -1.94140625 2.09765625 C-1.94140625 5.72765625 -1.94140625 9.35765625 -1.94140625 13.09765625 C-2.93140625 13.59265625 -2.93140625 13.59265625 -3.94140625 14.09765625 C-3.96826563 11.95188988 -3.98773713 9.8060298 -4.00390625 7.66015625 C-4.01550781 6.46519531 -4.02710938 5.27023437 -4.0390625 4.0390625 C-3.90927257 0.12978993 -3.90927257 0.12978993 0 0 Z " fill="#405370" transform="translate(232.94140625,4.90234375)"/>
</svg>
