<svg width="195" height="10" viewBox="0 0 195 10" fill="none" xmlns="http://www.w3.org/2000/svg">
<g clip-path="url(#clip0_2289_1757)">
<path d="M69.0708 7.26953C69.0708 7.27953 69.0508 7.28953 69.0508 7.30953L69.0808 7.26953H69.0708Z" fill="#E37D9B"/>
<path d="M194.45 3.58981C193.44 4.74981 192.12 4.50981 190.84 4.54981C186.45 4.69981 182.14 3.62981 177.75 3.71981C172.94 3.82981 168.14 4.31981 163.31 4.15981C159.44 4.02981 155.55 3.94981 151.68 4.16981C144.77 4.56981 137.87 4.33981 130.96 4.51981C127.25 4.61981 123.54 5.21981 119.83 5.31981C116.89 5.39981 113.97 5.60981 110.99 5.33981C108.22 5.08981 105.31 4.67981 102.54 5.68981C101.23 6.15981 99.95 5.72981 98.65 5.80981C94.42 6.06981 90.18 6.07981 85.94 6.27981C82.53 6.43981 79.13 6.87981 75.73 6.91981C73.99 6.93981 72.28 6.91981 70.62 7.49981C70.12 7.67981 69.82 7.20981 69.39 7.26981C69.28 7.06981 69.17 7.06981 69.06 7.26981C67.66 7.22981 66.25 8.31981 64.85 7.27981C64.29 7.84981 63.71 8.20981 63.04 7.39981C62.92 7.25981 62.88 7.10981 62.58 7.19981C59.88 7.98981 57.07 7.60981 54.32 7.91981C52.79 8.08981 51.22 8.15981 49.67 8.30981C47.89 8.47981 46.1 8.42981 44.33 8.64981C43.7 8.72981 43.64 8.26981 43.34 8.02981C42.54 8.82981 40.86 8.57981 40.4 7.56981C40.39 7.55981 40.37 7.53981 40.36 7.52981C40.38 7.55981 40.4 7.58981 40.42 7.60981C40.57 8.49981 40.25 9.07981 39.43 8.62981C38.36 8.02981 37.3 8.69981 36.26 8.41981C35.65 8.24981 35.47 9.14981 34.9 9.16981L34.84 9.11981C34.84 9.11981 34.92 9.11981 34.93 9.11981C34.5 8.64981 34.04 8.60981 33.49 8.92981C32.47 9.51981 31.52 8.57981 30.51 8.68981C30.48 8.68981 30.41 8.35981 30.35 8.13981C29.86 8.36981 30.17 8.77981 30.14 9.12981C30.1 9.55981 29.75 9.38981 29.54 9.23981C29.1 8.91981 28.77 8.50981 29.39 8.04981C29.97 7.61981 29.84 6.96981 29.62 6.56981C29.29 5.97981 28.94 6.33981 28.81 6.85981C28.77 7.04981 28.97 7.31981 28.91 7.48981C28.81 7.76981 28.6 8.00981 28.42 8.26981C28.42 8.26981 28.43 8.26981 28.44 8.26981C28.25 8.66981 28.62 8.88981 28.8 9.57981C27.86 8.39981 26.9 9.54981 26.04 9.03981C26 8.96981 25.97 8.90981 25.93 8.83981C25.86 8.90981 25.79 8.96981 25.72 9.03981C25.72 9.04981 25.74 9.06981 25.74 9.07981C25.72 9.07981 25.7 9.07981 25.68 9.07981L25.71 9.02981C25.6 9.04981 25.5 9.05981 25.39 9.07981C25.39 9.07981 25.39 9.07981 25.38 9.07981H25.4C25.4 8.83981 25.35 8.59981 25.08 8.61981C24.86 8.63981 24.7 8.79981 24.7 9.07981C24.72 9.07981 24.75 9.07981 24.77 9.07981C24.76 9.09981 24.74 9.09981 24.73 9.12981C24.51 9.10981 24.3 9.07981 24.08 9.04981C24.07 9.01981 24.05 8.97981 24.06 8.95981C24.08 8.90981 24.1 8.86981 24.13 8.82981C24.01 8.90981 23.88 8.97981 23.76 9.05981C23.76 9.05981 23.76 9.07981 23.77 9.07981C23.75 9.07981 23.73 9.07981 23.71 9.07981L23.74 9.02981C23.33 8.59981 21.97 9.16981 22.55 7.65981C22.71 7.24981 22.23 7.31981 22 7.31981C20.02 7.30981 18.04 7.31981 16.02 7.31981C16.23 8.08981 16.79 8.14981 17.1 7.93981C18.32 7.13981 19.6 8.19981 20.86 7.67981C21.45 7.43981 21.98 8.20981 22.19 8.93981C22.19 8.94981 22.19 8.96981 22.18 8.97981C22.17 8.95981 22.16 8.93981 22.15 8.91981C20.42 8.98981 18.69 9.05981 16.96 9.13981C16.9 9.30981 16.75 9.45981 16.64 9.28981C16.51 9.09981 16.74 9.07981 16.87 9.03981C16.87 9.03981 16.89 9.05981 16.91 9.08981L16.87 9.03981C15.31 8.26981 13.52 8.51981 11.87 7.27981C12.08 8.28981 13.19 7.57981 12.89 8.42981C12.68 9.02981 11.89 8.77981 11.43 8.64981C10.65 8.42981 11.27 7.63981 11.07 7.14981C10.91 6.77981 12 7.20981 11.35 6.63981C11.22 6.52981 10.78 6.44981 10.64 7.00981C10.19 8.76981 9.51 9.12981 7.98 8.32981C6.94 7.78981 5.86 8.16981 4.79 7.93981C5.15 7.14981 6.08 8.04981 6.4 7.24981C3.24 6.28981 1.08 5.17981 0 3.96981C3.68 2.17981 7.41 3.62981 11.1 3.61981C13.63 3.60981 16.17 4.38981 18.69 3.49981C20.14 2.97981 21.62 3.62981 23.13 3.48981C27.68 3.04981 32.25 2.87981 36.82 2.78981C43.73 2.65981 50.65 2.85981 57.55 2.58981C63.15 2.36981 68.73 1.55981 74.35 1.56981C76.94 1.56981 79.55 0.989806 82.13 1.90981C82.71 2.11981 83.49 1.77981 84.15 1.59981C84.9 1.39981 85.57 0.869806 86.27 1.88981C86.79 2.65981 87.25 0.729806 87.95 1.59981C88.81 1.57981 89.81 0.289806 90.51 1.93981C90.55 2.02981 90.93 1.99981 91.14 1.95981C93.1 1.61981 95.08 1.44981 97.06 1.65981C97.92 1.74981 98.52 0.959806 99.36 1.02981C101.15 1.17981 102.96 1.19981 104.72 1.27981C106.06 1.33981 107.54 1.40981 108.95 1.25981C110.75 1.07981 112.42 2.03981 114.2 1.88981C121.24 2.18981 128.29 1.84981 135.33 1.98981C141.34 2.10981 147.32 1.56981 153.33 1.61981C157.1 1.64981 160.87 1.16981 164.63 0.849806C169.85 0.399806 175.07 -0.0501938 180.29 0.0298062C182.74 0.0698062 185.25 -0.0201938 187.71 0.499806C188.53 0.669806 189.65 -0.270194 189.74 1.66981C189.77 2.21981 191.02 2.04981 191.69 1.97981C192.99 1.85981 194.03 2.08981 194.43 3.59981L194.45 3.58981ZM6.99 6.41981C6.99 6.41981 6.91 6.28981 6.88 6.29981C6.78 6.31981 6.69 6.36981 6.6 6.39981C6.64 6.43981 6.68 6.52981 6.71 6.51981C6.81 6.49981 6.9 6.44981 7 6.41981H6.99ZM9.03 7.63981C8.98 7.55981 8.93 7.47981 8.88 7.39981C8.77 7.50981 8.66 7.60981 8.57 7.72981C8.57 7.73981 8.67 7.89981 8.74 7.91981C8.95 7.97981 9.01 7.82981 9.03 7.63981ZM14.85 6.97981C14.85 6.97981 14.83 6.88981 14.82 6.83981C14.79 6.84981 14.73 6.85981 14.73 6.87981C14.73 6.92981 14.75 6.96981 14.76 7.01981C14.79 7.00981 14.82 6.98981 14.86 6.97981H14.85ZM23.66 7.47981C23.66 7.47981 23.6 7.38981 23.57 7.38981C23.54 7.38981 23.51 7.43981 23.47 7.46981C23.5 7.49981 23.53 7.55981 23.56 7.55981C23.59 7.55981 23.62 7.50981 23.66 7.47981ZM24.61 7.78981C24.61 7.78981 24.65 7.72981 24.67 7.69981C24.67 7.69981 24.65 7.69981 24.65 7.70981C24.63 7.72981 24.63 7.75981 24.62 7.78981H24.61ZM24.87 7.39981C24.84 7.45981 24.81 7.52981 24.78 7.58981C24.88 7.58981 25.01 7.61981 24.87 7.39981ZM26.96 8.46981C26.97 8.22981 26.94 8.07981 26.74 8.12981C26.65 8.14981 26.52 8.24981 26.52 8.30981C26.52 8.42981 26.6 8.55981 26.64 8.67981C26.76 8.59981 26.87 8.52981 26.97 8.46981H26.96ZM28.34 8.27981C27.87 8.00981 28.12 7.39981 28 6.72981C27.51 7.70981 27.19 8.36981 28.34 8.27981ZM30.89 7.00981C30.09 6.98981 30.34 7.58981 30.36 8.04981C30.54 7.69981 30.87 7.44981 30.89 7.00981ZM32.26 7.50981C32.26 7.50981 32.2 7.41981 32.17 7.37981C32.12 7.42981 32.06 7.48981 32.01 7.53981C32.05 7.55981 32.1 7.57981 32.14 7.59981C32.18 7.56981 32.22 7.53981 32.27 7.50981H32.26ZM40.9 6.71981L40.8 6.75981L40.89 6.81981V6.71981H40.9ZM41.87 6.50981C41.82 6.41981 41.74 6.28981 41.74 6.29981C41.62 6.36981 41.49 6.42981 41.41 6.53981C41.38 6.58981 41.47 6.72981 41.5 6.82981C41.62 6.72981 41.74 6.61981 41.87 6.50981ZM48.68 6.23981C48.68 6.23981 48.6 6.38981 48.58 6.54981C48.56 6.72981 48.61 6.93981 48.83 6.86981C48.96 6.82981 49.11 6.69981 49.17 6.56981C49.26 6.33981 49.07 6.30981 48.67 6.23981H48.68ZM51.71 6.42981C51.71 6.42981 51.66 6.35981 51.63 6.31981C51.6 6.34981 51.54 6.37981 51.54 6.40981C51.54 6.43981 51.59 6.47981 51.62 6.51981C51.65 6.48981 51.71 6.45981 51.71 6.42981ZM60.45 6.72981L60.36 6.75981L60.44 6.81981V6.72981H60.45ZM64.81 7.22981C64.77 7.16981 64.74 7.11981 64.7 7.05981C64.68 7.10981 64.65 7.16981 64.63 7.21981C64.69 7.21981 64.75 7.21981 64.81 7.22981ZM109.41 1.83981C109.41 1.83981 109.36 1.76981 109.33 1.72981C109.3 1.75981 109.24 1.78981 109.24 1.81981C109.24 1.84981 109.29 1.88981 109.32 1.92981C109.35 1.89981 109.41 1.86981 109.41 1.83981ZM114.38 2.16981C114.33 2.07981 114.28 1.98981 114.22 1.89981C114.24 2.00981 114.04 2.25981 114.38 2.16981Z" fill="#E37D9B"/>
<path d="M24.7695 9.07967C24.9695 9.07967 25.1695 9.07967 25.3795 9.07967C25.1695 8.98967 24.9595 8.81967 24.7695 9.07967Z" fill="#E37D9B"/>
<path d="M22.2606 9.10973C22.2606 9.10973 22.2106 9.01973 22.1906 8.96973C22.1706 9.02973 22.1606 9.07973 22.1406 9.13973C22.1806 9.12973 22.2206 9.11973 22.2606 9.09973V9.10973Z" fill="#E37D9B"/>
<path d="M24.0595 9.06934C23.9595 9.06934 23.8695 9.06934 23.7695 9.06934C23.8595 9.22934 23.9495 9.36934 24.0595 9.06934Z" fill="#E37D9B"/>
<path d="M24.0605 9.07004C24.0605 9.07004 24.0805 9.07004 24.0905 9.07004C24.0905 9.07004 24.0905 9.05004 24.0805 9.04004C24.0805 9.04004 24.0805 9.04004 24.0705 9.04004C24.0705 9.05004 24.0705 9.06004 24.0605 9.07004Z" fill="#E37D9B"/>
<path d="M25.9902 9.08004C25.9902 9.08004 26.0302 9.08004 26.0502 9.08004C26.0502 9.07004 26.0402 9.06004 26.0302 9.04004C26.0302 9.04004 26.0202 9.04004 26.0102 9.04004C26.0102 9.05004 26.0002 9.07004 25.9902 9.08004Z" fill="#E37D9B"/>
<path d="M25.8902 9.29934C25.9202 9.21934 25.9602 9.14934 25.9902 9.06934C25.9102 9.06934 25.8202 9.06934 25.7402 9.06934C25.7902 9.13934 25.8402 9.21934 25.8902 9.28934V9.29934Z" fill="#E37D9B"/>
<path d="M36.3207 8.93934L36.3407 8.81934L36.2207 8.86934L36.3207 8.93934Z" fill="#E37D9B"/>
<path d="M69.3701 7.30957C69.2701 7.30957 69.1801 7.30957 69.0801 7.30957C69.1801 7.60957 69.2701 7.52957 69.3701 7.30957Z" fill="#E37D9B"/>
<path d="M69.3691 7.30953C69.3691 7.30953 69.3991 7.30953 69.4191 7.30953C69.4191 7.28953 69.3991 7.28953 69.3891 7.26953C69.3891 7.28953 69.3791 7.29953 69.3691 7.30953Z" fill="#E37D9B"/>
<path d="M69.0393 7.30953C69.0393 7.30953 69.0693 7.30953 69.0793 7.30953C69.0793 7.28953 69.0693 7.28953 69.0593 7.26953L69.0293 7.30953H69.0393Z" fill="#E37D9B"/>
</g>
<defs>
<clipPath id="clip0_2289_1757">
<rect width="194.45" height="9.58" fill="white"/>
</clipPath>
</defs>
</svg>
